<svg width="34" height="34" viewBox="0 0 34 34" fill="none" xmlns="http://www.w3.org/2000/svg">
<g clip-path="url(#clip0_55_75)">
<path d="M24.7916 9.2085H24.8058M9.91659 2.8335H24.0833C27.9953 2.8335 31.1666 6.00481 31.1666 9.91683V24.0835C31.1666 27.9955 27.9953 31.1668 24.0833 31.1668H9.91659C6.00457 31.1668 2.83325 27.9955 2.83325 24.0835V9.91683C2.83325 6.00481 6.00457 2.8335 9.91659 2.8335ZM22.6666 16.1077C22.8414 17.2867 22.64 18.4908 22.0911 19.5488C21.5421 20.6067 20.6735 21.4647 19.6089 22.0005C18.5442 22.5364 17.3377 22.7229 16.1609 22.5336C14.9842 22.3442 13.8971 21.7886 13.0543 20.9458C12.2115 20.103 11.6559 19.0159 11.4665 17.8391C11.2772 16.6624 11.4637 15.4558 11.9995 14.3912C12.5354 13.3265 13.3933 12.458 14.4513 11.909C15.5093 11.36 16.7134 11.1587 17.8924 11.3335C19.0951 11.5118 20.2085 12.0722 21.0682 12.9319C21.9278 13.7916 22.4882 14.905 22.6666 16.1077Z" stroke="white" stroke-width="4" stroke-linecap="round" stroke-linejoin="round"/>
</g>
<defs>
<clipPath id="clip0_55_75">
<rect width="34" height="34" fill="white"/>
</clipPath>
</defs>
</svg>
