<svg width="62" height="62" viewBox="0 0 62 62" fill="none" xmlns="http://www.w3.org/2000/svg">
<g clip-path="url(#clip0_55_495)">
<path d="M54.0632 25.7441C54.0632 43.7652 30.8933 59.2118 30.8933 59.2118C30.8933 59.2118 7.72339 43.7652 7.72339 25.7441C7.72339 19.5991 10.1645 13.7057 14.5097 9.36053C18.8549 5.01533 24.7483 2.57422 30.8933 2.57422C37.0383 2.57422 42.9317 5.01533 47.2769 9.36053C51.6221 13.7057 54.0632 19.5991 54.0632 25.7441Z" stroke="white" stroke-width="4" stroke-linecap="round" stroke-linejoin="round"/>
<path d="M30.8933 33.4674C35.1588 33.4674 38.6166 30.0096 38.6166 25.7441C38.6166 21.4787 35.1588 18.0208 30.8933 18.0208C26.6278 18.0208 23.17 21.4787 23.17 25.7441C23.17 30.0096 26.6278 33.4674 30.8933 33.4674Z" stroke="white" stroke-width="4" stroke-linecap="round" stroke-linejoin="round"/>
</g>
<defs>
<clipPath id="clip0_55_495">
<rect width="61.7864" height="61.7864" fill="white"/>
</clipPath>
</defs>
</svg>
