<svg width="31" height="31" viewBox="0 0 31 31" fill="none" xmlns="http://www.w3.org/2000/svg">
<g clip-path="url(#clip0_55_67)">
<path d="M28.4166 21.8548V25.7298C28.4181 26.0895 28.3444 26.4456 28.2003 26.7752C28.0561 27.1048 27.8448 27.4007 27.5797 27.6439C27.3146 27.8871 27.0017 28.0722 26.6609 28.1875C26.3201 28.3027 25.959 28.3455 25.6008 28.3131C21.6261 27.8813 17.8081 26.5231 14.4537 24.3477C11.3328 22.3646 8.68683 19.7186 6.70368 16.5977C4.52074 13.228 3.16225 9.3915 2.73827 5.39897C2.70599 5.04178 2.74844 4.68178 2.86291 4.3419C2.97739 4.00201 3.16138 3.68969 3.40317 3.42481C3.64497 3.15993 3.93927 2.9483 4.26733 2.80339C4.5954 2.65848 4.95004 2.58347 5.30868 2.58313H9.18368C9.81054 2.57696 10.4182 2.79894 10.8935 3.2077C11.3688 3.61645 11.6793 4.18409 11.767 4.8048C11.9306 6.04489 12.2339 7.26249 12.6712 8.43438C12.845 8.8967 12.8826 9.39915 12.7796 9.88219C12.6765 10.3652 12.4372 10.8086 12.0899 11.1598L10.4495 12.8002C12.2883 16.034 14.9658 18.7115 18.1995 20.5502L19.8399 18.9098C20.1911 18.5625 20.6345 18.3232 21.1175 18.2202C21.6006 18.1172 22.103 18.1548 22.5653 18.3286C23.7372 18.7658 24.9548 19.0692 26.1949 19.2327C26.8224 19.3212 27.3954 19.6373 27.805 20.1207C28.2147 20.6042 28.4323 21.2213 28.4166 21.8548Z" stroke="white" stroke-width="4" stroke-linecap="round" stroke-linejoin="round"/>
</g>
<defs>
<clipPath id="clip0_55_67">
<rect width="31" height="31" fill="white"/>
</clipPath>
</defs>
</svg>
