<svg xmlns="http://www.w3.org/2000/svg" xmlns:xlink="http://www.w3.org/1999/xlink" width="399" zoomAndPan="magnify" viewBox="0 0 299.25 170.249993" height="227" preserveAspectRatio="xMidYMid meet" version="1.0"><defs><g/><clipPath id="5811183676"><path d="M 92 41 L 213 41 L 213 115 L 92 115 Z M 92 41 " clip-rule="nonzero"/></clipPath><clipPath id="4739c3ca23"><path d="M 81.550781 49.695312 L 201.292969 27.890625 L 213.066406 92.539062 L 93.320312 114.34375 Z M 81.550781 49.695312 " clip-rule="nonzero"/></clipPath><clipPath id="622a468a2d"><path d="M 81.550781 49.695312 L 201.292969 27.890625 L 213.066406 92.539062 L 93.320312 114.34375 Z M 81.550781 49.695312 " clip-rule="nonzero"/></clipPath><clipPath id="b50cdaeda2"><path d="M 33 19 L 267 19 L 267 122 L 33 122 Z M 33 19 " clip-rule="nonzero"/></clipPath><clipPath id="63d2167160"><path d="M 19.050781 43.910156 L 251.652344 0.00390625 L 266.332031 77.78125 L 33.734375 121.6875 Z M 19.050781 43.910156 " clip-rule="nonzero"/></clipPath><clipPath id="ae95328844"><path d="M 251.664062 0 L 19.0625 43.910156 L 33.746094 121.6875 L 266.34375 77.777344 Z M 251.664062 0 " clip-rule="nonzero"/></clipPath><clipPath id="b417898522"><path d="M 251.574219 0.015625 L 19.144531 43.894531 L 33.796875 121.515625 L 266.226562 77.640625 Z M 251.574219 0.015625 " clip-rule="nonzero"/></clipPath><clipPath id="f3f398e350"><path d="M 108 58 L 191 58 L 191 108 L 108 108 Z M 108 58 " clip-rule="nonzero"/></clipPath><clipPath id="9e3d86e3ac"><path d="M 19.050781 43.910156 L 251.652344 0.00390625 L 266.332031 77.78125 L 33.734375 121.6875 Z M 19.050781 43.910156 " clip-rule="nonzero"/></clipPath><clipPath id="768ecb7610"><path d="M 251.664062 0 L 19.0625 43.910156 L 33.746094 121.6875 L 266.34375 77.777344 Z M 251.664062 0 " clip-rule="nonzero"/></clipPath><clipPath id="1f060235c8"><path d="M 182.84375 51.503906 L 101.960938 66.773438 L 109.59375 107.210938 L 190.476562 91.941406 Z M 182.84375 51.503906 " clip-rule="nonzero"/></clipPath><clipPath id="5bc4fb1a6d"><path d="M 118 68 L 181 68 L 181 106 L 118 106 Z M 118 68 " clip-rule="nonzero"/></clipPath><clipPath id="63919609dd"><path d="M 19.050781 43.910156 L 251.652344 0.00390625 L 266.332031 77.78125 L 33.734375 121.6875 Z M 19.050781 43.910156 " clip-rule="nonzero"/></clipPath><clipPath id="9e48dd0c16"><path d="M 251.664062 0 L 19.0625 43.910156 L 33.746094 121.6875 L 266.34375 77.777344 Z M 251.664062 0 " clip-rule="nonzero"/></clipPath><clipPath id="ec41703ab5"><path d="M 175.125 62.816406 L 113.273438 74.492188 L 119.109375 105.414062 L 180.960938 93.738281 Z M 175.125 62.816406 " clip-rule="nonzero"/></clipPath><clipPath id="64ad64c9f1"><path d="M 35 20 L 264 20 L 264 121 L 35 121 Z M 35 20 " clip-rule="nonzero"/></clipPath><clipPath id="f784b2b37c"><path d="M 21.523438 44.25 L 249.71875 1.171875 L 264.125 77.480469 L 35.929688 120.558594 Z M 21.523438 44.25 " clip-rule="nonzero"/></clipPath><clipPath id="1ed5087e7a"><path d="M 249.492188 1.214844 L 21.292969 44.292969 L 35.699219 120.601562 L 263.894531 77.523438 Z M 249.492188 1.214844 " clip-rule="nonzero"/></clipPath><clipPath id="f97232411a"><path d="M 249.40625 1.230469 L 21.613281 44.234375 L 35.972656 120.308594 L 263.769531 77.308594 Z M 249.40625 1.230469 " clip-rule="nonzero"/></clipPath><clipPath id="073f929a7a"><path d="M 109 58 L 190 58 L 190 107 L 109 107 Z M 109 58 " clip-rule="nonzero"/></clipPath><clipPath id="a603cc8ff2"><path d="M 21.523438 44.25 L 249.71875 1.171875 L 264.125 77.480469 L 35.929688 120.558594 Z M 21.523438 44.25 " clip-rule="nonzero"/></clipPath><clipPath id="7b0cba46a7"><path d="M 249.492188 1.214844 L 21.292969 44.292969 L 35.699219 120.601562 L 263.894531 77.523438 Z M 249.492188 1.214844 " clip-rule="nonzero"/></clipPath><clipPath id="994cc9124d"><path d="M 182.046875 51.691406 L 102.777344 66.65625 L 110.257812 106.285156 L 189.527344 91.320312 Z M 182.046875 51.691406 " clip-rule="nonzero"/></clipPath><clipPath id="8a1c5edeaf"><path d="M 119 68 L 181 68 L 181 105 L 119 105 Z M 119 68 " clip-rule="nonzero"/></clipPath><clipPath id="936a821cfb"><path d="M 21.523438 44.25 L 249.71875 1.171875 L 264.125 77.480469 L 35.929688 120.558594 Z M 21.523438 44.25 " clip-rule="nonzero"/></clipPath><clipPath id="9cdb073310"><path d="M 249.492188 1.214844 L 21.292969 44.292969 L 35.699219 120.601562 L 263.894531 77.523438 Z M 249.492188 1.214844 " clip-rule="nonzero"/></clipPath><clipPath id="0e16def9f7"><path d="M 174.480469 62.777344 L 113.863281 74.21875 L 119.582031 104.523438 L 180.203125 93.082031 Z M 174.480469 62.777344 " clip-rule="nonzero"/></clipPath><clipPath id="002e60ef2e"><path d="M 9 74 L 285 74 L 285 163 L 9 163 Z M 9 74 " clip-rule="nonzero"/></clipPath><clipPath id="fe311c2d91"><path d="M 9.867188 124.65625 L 277.515625 74.667969 L 284.574219 112.46875 L 16.925781 162.457031 Z M 9.867188 124.65625 " clip-rule="nonzero"/></clipPath><clipPath id="2b3ad020d7"><path d="M 9 74 L 285 74 L 285 163 L 9 163 Z M 9 74 " clip-rule="nonzero"/></clipPath><clipPath id="fc3ab61279"><path d="M 9.867188 124.65625 L 277.78125 74.617188 L 284.773438 112.054688 L 16.859375 162.09375 Z M 9.867188 124.65625 " clip-rule="nonzero"/></clipPath><clipPath id="76c00e7af6"><path d="M 9.898438 124.652344 L 277.472656 74.675781 L 284.53125 112.464844 L 16.957031 162.441406 Z M 9.898438 124.652344 " clip-rule="nonzero"/></clipPath></defs><g clip-path="url(#5811183676)"><g clip-path="url(#4739c3ca23)"><g clip-path="url(#622a468a2d)"><path fill="#e6e6e6" d="M 212.957031 92.460938 L 93.304688 114.246094 C 89.9375 92.8125 95.050781 74.222656 110.496094 59.355469 C 128.59375 41.941406 150.246094 37.261719 173.847656 45.753906 C 195.398438 53.511719 207.929688 69.640625 212.957031 92.460938 Z M 212.957031 92.460938 " fill-opacity="1" fill-rule="nonzero"/></g></g></g><g clip-path="url(#b50cdaeda2)"><g clip-path="url(#63d2167160)"><g clip-path="url(#ae95328844)"><g clip-path="url(#b417898522)"><path fill="#ffffff" d="M 84.722656 91.273438 C 84.851562 89.363281 83.882812 87.121094 81.148438 83.847656 C 79.722656 82.140625 77.710938 78.480469 76.902344 76.058594 C 77.089844 77.648438 77.460938 79.226562 78.035156 80.789062 C 78.921875 83.1875 80.6875 85.871094 82.167969 87.539062 C 83.328125 88.839844 84.160156 90.09375 84.722656 91.273438 Z M 91.9375 62.628906 C 92.511719 64.277344 92.800781 65.753906 92.871094 67.058594 C 93.71875 65.34375 93.679688 62.902344 92.410156 58.832031 C 91.746094 56.707031 91.289062 52.558594 91.46875 50.007812 C 91.035156 51.546875 90.769531 53.148438 90.703125 54.8125 C 90.601562 57.367188 91.210938 60.523438 91.9375 62.628906 Z M 112.386719 40.027344 C 112.585938 37.808594 113.75 33.800781 114.894531 31.515625 C 113.902344 32.773438 113.046875 34.148438 112.347656 35.664062 C 111.277344 37.984375 110.628906 41.132812 110.5 43.355469 C 110.394531 45.097656 110.101562 46.574219 109.664062 47.804688 C 111.101562 46.542969 112.003906 44.273438 112.386719 40.027344 Z M 138.039062 30.300781 C 139.074219 28.328125 141.683594 25.070312 143.613281 23.394531 C 142.214844 24.175781 140.898438 25.121094 139.671875 26.253906 C 137.796875 27.988281 135.992188 30.648438 135.019531 32.652344 C 134.257812 34.21875 133.421875 35.472656 132.546875 36.441406 C 134.359375 35.828125 136.058594 34.078125 138.039062 30.300781 Z M 165.460938 31.128906 C 167.171875 29.703125 170.828125 27.691406 173.253906 26.882812 C 171.664062 27.070312 170.085938 27.4375 168.519531 28.015625 C 166.125 28.898438 163.4375 30.667969 161.773438 32.148438 C 160.46875 33.304688 159.214844 34.140625 158.035156 34.703125 C 159.945312 34.828125 162.1875 33.863281 165.460938 31.128906 Z M 190.480469 42.390625 C 192.605469 41.726562 196.753906 41.269531 199.300781 41.449219 C 197.761719 41.011719 196.164062 40.746094 194.496094 40.683594 C 191.945312 40.582031 188.785156 41.1875 186.679688 41.917969 C 185.035156 42.488281 183.554688 42.78125 182.25 42.851562 C 183.96875 43.695312 186.410156 43.660156 190.480469 42.390625 Z M 209.285156 62.367188 C 211.5 62.566406 215.507812 63.730469 217.792969 64.875 C 216.539062 63.882812 215.164062 63.023438 213.648438 62.328125 C 211.328125 61.257812 208.175781 60.609375 205.953125 60.476562 C 204.214844 60.375 202.738281 60.082031 201.507812 59.644531 C 202.765625 61.082031 205.035156 61.984375 209.285156 62.367188 Z M 72.664062 108.503906 C 70.664062 104.65625 69.859375 100.226562 69.835938 95.457031 C 70.742188 97.960938 72.328125 100.261719 74.554688 101.726562 C 77.523438 103.679688 80.757812 103.578125 82.605469 101.503906 C 84.636719 99.226562 84.632812 95.179688 80.457031 90.476562 C 78.976562 88.808594 77.207031 86.125 76.324219 83.726562 C 74.101562 77.710938 74.957031 71.488281 77.515625 65.226562 C 77.394531 67.886719 77.980469 70.621094 79.472656 72.824219 C 81.472656 75.765625 84.5 76.910156 87 75.699219 C 89.75 74.375 91.292969 70.632812 89.234375 64.6875 C 88.503906 62.582031 87.898438 59.425781 87.996094 56.875 C 88.25 50.464844 91.421875 45.042969 96.179688 40.238281 C 95.050781 42.648438 94.542969 45.394531 95.082031 48.003906 C 95.800781 51.484375 98.160156 53.699219 100.933594 53.542969 C 103.980469 53.367188 106.839844 50.5 107.210938 44.222656 C 107.34375 42 107.992188 38.847656 109.058594 36.53125 C 111.746094 30.703125 116.75 26.910156 122.984375 24.292969 C 121.019531 26.085938 119.5 28.433594 119 31.046875 C 118.328125 34.539062 119.660156 37.488281 122.285156 38.402344 C 125.167969 39.40625 128.90625 37.851562 131.652344 32.195312 C 132.625 30.191406 134.429688 27.53125 136.304688 25.796875 C 141.015625 21.441406 147.089844 19.851562 153.851562 19.816406 C 151.347656 20.722656 149.046875 22.308594 147.585938 24.535156 C 145.628906 27.503906 145.730469 30.738281 147.804688 32.585938 C 150.082031 34.617188 154.132812 34.613281 158.835938 30.4375 C 160.5 28.957031 163.1875 27.1875 165.582031 26.304688 C 171.601562 24.082031 177.824219 24.9375 184.082031 27.496094 C 181.421875 27.375 178.691406 27.960938 176.488281 29.453125 C 173.542969 31.449219 172.402344 34.476562 173.609375 36.980469 C 174.9375 39.726562 178.679688 41.273438 184.621094 39.214844 C 186.726562 38.484375 189.886719 37.878906 192.4375 37.976562 C 198.847656 38.230469 204.269531 41.402344 209.074219 46.160156 C 206.660156 45.027344 203.914062 44.523438 201.304688 45.0625 C 197.824219 45.777344 195.609375 48.136719 195.769531 50.914062 C 195.941406 53.960938 198.808594 56.820312 205.085938 57.191406 C 207.3125 57.324219 210.460938 57.972656 212.78125 59.039062 C 218.605469 61.726562 222.402344 66.730469 225.019531 72.964844 C 223.222656 70.996094 220.878906 69.480469 218.261719 68.980469 C 214.773438 68.308594 211.824219 69.640625 210.90625 72.265625 C 210.488281 73.472656 210.515625 74.828125 211.105469 76.199219 C 212.1875 78.714844 214.804688 80.214844 217.535156 80.078125 L 266.226562 77.640625 L 205.785156 89.050781 C 199.613281 58.453125 169.964844 38.417969 139.203125 44.226562 C 108.441406 50.035156 88.136719 79.496094 93.542969 110.238281 L 33.796875 121.515625 L 72.664062 108.503906 " fill-opacity="1" fill-rule="nonzero"/></g></g></g></g><g clip-path="url(#f3f398e350)"><g clip-path="url(#9e3d86e3ac)"><g clip-path="url(#768ecb7610)"><g clip-path="url(#1f060235c8)"><path fill="#ffffff" d="M 142.386719 59.183594 C 164.660156 54.980469 186.203125 69.679688 190.410156 91.953125 L 187.242188 92.550781 C 183.367188 72.023438 163.511719 58.476562 142.984375 62.351562 C 122.457031 66.226562 108.910156 86.078125 112.785156 106.605469 L 109.617188 107.203125 C 105.414062 84.929688 120.113281 63.386719 142.386719 59.183594 " fill-opacity="1" fill-rule="nonzero"/></g></g></g></g><g clip-path="url(#5bc4fb1a6d)"><g clip-path="url(#63919609dd)"><g clip-path="url(#9e48dd0c16)"><g clip-path="url(#ec41703ab5)"><path fill="#ffffff" d="M 144.1875 68.714844 C 161.234375 65.496094 177.660156 76.707031 180.878906 93.753906 L 155.539062 98.535156 C 154.964844 95.484375 152.023438 93.476562 148.96875 94.050781 C 145.917969 94.628906 143.910156 97.570312 144.484375 100.621094 L 119.148438 105.40625 C 115.929688 88.359375 127.140625 71.933594 144.1875 68.714844 " fill-opacity="1" fill-rule="nonzero"/></g></g></g></g><g clip-path="url(#64ad64c9f1)"><g clip-path="url(#f784b2b37c)"><g clip-path="url(#1ed5087e7a)"><g clip-path="url(#f97232411a)"><path fill="#000000" d="M 85.882812 90.667969 C 86.007812 88.796875 85.058594 86.597656 82.382812 83.390625 C 80.980469 81.714844 79.011719 78.128906 78.21875 75.753906 C 78.402344 77.3125 78.761719 78.859375 79.328125 80.394531 C 80.195312 82.742188 81.929688 85.375 83.378906 87.007812 C 84.511719 88.285156 85.332031 89.511719 85.882812 90.667969 Z M 92.953125 62.59375 C 93.515625 64.207031 93.800781 65.65625 93.867188 66.933594 C 94.695312 65.253906 94.664062 62.863281 93.417969 58.871094 C 92.765625 56.789062 92.316406 52.722656 92.492188 50.226562 C 92.066406 51.734375 91.808594 53.300781 91.742188 54.933594 C 91.644531 57.4375 92.238281 60.53125 92.953125 62.59375 Z M 112.996094 40.441406 C 113.191406 38.269531 114.332031 34.339844 115.453125 32.101562 C 114.480469 33.332031 113.640625 34.679688 112.957031 36.164062 C 111.90625 38.4375 111.273438 41.527344 111.144531 43.707031 C 111.042969 45.410156 110.753906 46.859375 110.324219 48.066406 C 111.738281 46.828125 112.621094 44.605469 112.996094 40.441406 Z M 138.136719 30.910156 C 139.148438 28.976562 141.707031 25.785156 143.597656 24.144531 C 142.226562 24.90625 140.9375 25.832031 139.738281 26.941406 C 137.898438 28.640625 136.128906 31.25 135.175781 33.214844 C 134.429688 34.75 133.609375 35.980469 132.753906 36.929688 C 134.527344 36.328125 136.195312 34.613281 138.136719 30.910156 Z M 165.011719 31.722656 C 166.6875 30.324219 170.269531 28.355469 172.644531 27.5625 C 171.089844 27.742188 169.542969 28.105469 168.007812 28.671875 C 165.660156 29.535156 163.027344 31.269531 161.394531 32.71875 C 160.117188 33.855469 158.890625 34.675781 157.734375 35.226562 C 159.605469 35.347656 161.800781 34.402344 165.011719 31.722656 Z M 189.53125 42.757812 C 191.613281 42.109375 195.679688 41.660156 198.175781 41.835938 C 196.667969 41.410156 195.101562 41.148438 193.464844 41.085938 C 190.964844 40.988281 187.871094 41.582031 185.808594 42.296875 C 184.191406 42.855469 182.746094 43.140625 181.464844 43.210938 C 183.148438 44.039062 185.539062 44.003906 189.53125 42.757812 Z M 207.960938 62.335938 C 210.132812 62.53125 214.058594 63.675781 216.300781 64.792969 C 215.070312 63.820312 213.722656 62.984375 212.234375 62.296875 C 209.960938 61.25 206.875 60.613281 204.695312 60.484375 C 202.992188 60.386719 201.542969 60.097656 200.335938 59.667969 C 201.570312 61.078125 203.796875 61.960938 207.960938 62.335938 Z M 74.0625 107.554688 C 72.105469 103.78125 71.316406 99.445312 71.292969 94.769531 C 72.183594 97.222656 73.734375 99.476562 75.917969 100.910156 C 78.828125 102.828125 81.996094 102.726562 83.808594 100.695312 C 85.800781 98.460938 85.792969 94.492188 81.699219 89.886719 C 80.25 88.253906 78.519531 85.621094 77.652344 83.273438 C 75.472656 77.375 76.3125 71.277344 78.820312 65.140625 C 78.699219 67.75 79.273438 70.425781 80.738281 72.585938 C 82.695312 75.46875 85.664062 76.589844 88.113281 75.40625 C 90.808594 74.105469 92.320312 70.4375 90.304688 64.613281 C 89.585938 62.550781 88.992188 59.453125 89.09375 56.953125 C 89.335938 50.671875 92.449219 45.359375 97.109375 40.648438 C 96.003906 43.011719 95.507812 45.707031 96.035156 48.261719 C 96.738281 51.671875 99.050781 53.84375 101.769531 53.6875 C 104.757812 53.519531 107.558594 50.707031 107.921875 44.554688 C 108.050781 42.375 108.6875 39.289062 109.734375 37.015625 C 112.367188 31.304688 117.269531 27.585938 123.382812 25.019531 C 121.453125 26.78125 119.964844 29.078125 119.476562 31.640625 C 118.816406 35.0625 120.125 37.953125 122.695312 38.851562 C 125.519531 39.835938 129.183594 38.3125 131.875 32.765625 C 132.828125 30.804688 134.597656 28.195312 136.433594 26.496094 C 141.050781 22.226562 147.007812 20.667969 153.632812 20.636719 C 151.179688 21.523438 148.925781 23.078125 147.488281 25.257812 C 145.574219 28.167969 145.675781 31.335938 147.707031 33.152344 C 149.9375 35.140625 153.90625 35.136719 158.515625 31.042969 C 160.148438 29.59375 162.78125 27.859375 165.128906 26.992188 C 171.027344 24.816406 177.125 25.65625 183.261719 28.160156 C 180.652344 28.042969 177.976562 28.617188 175.816406 30.082031 C 172.933594 32.035156 171.8125 35.003906 172.996094 37.457031 C 174.296875 40.148438 177.964844 41.664062 183.789062 39.644531 C 185.851562 38.929688 188.949219 38.335938 191.449219 38.433594 C 197.730469 38.679688 203.042969 41.789062 207.753906 46.453125 C 205.390625 45.34375 202.695312 44.851562 200.140625 45.375 C 196.730469 46.082031 194.558594 48.390625 194.714844 51.109375 C 194.882812 54.097656 197.695312 56.898438 203.847656 57.265625 C 206.027344 57.394531 209.113281 58.027344 211.386719 59.078125 C 217.097656 61.707031 220.816406 66.613281 223.378906 72.722656 C 221.621094 70.796875 219.324219 69.308594 216.761719 68.816406 C 213.339844 68.160156 210.449219 69.464844 209.550781 72.035156 C 209.140625 73.21875 209.167969 74.550781 209.746094 75.894531 C 210.808594 78.359375 213.367188 79.832031 216.046875 79.695312 L 263.769531 77.308594 L 204.53125 88.488281 C 198.484375 58.5 169.425781 38.867188 139.277344 44.558594 C 109.128906 50.25 89.226562 79.125 94.527344 109.253906 L 35.972656 120.308594 L 74.0625 107.554688 " fill-opacity="1" fill-rule="nonzero"/></g></g></g></g><g clip-path="url(#073f929a7a)"><g clip-path="url(#a603cc8ff2)"><g clip-path="url(#7b0cba46a7)"><g clip-path="url(#994cc9124d)"><path fill="#000000" d="M 142.398438 59.21875 C 164.226562 55.097656 185.339844 69.503906 189.460938 91.332031 L 189.460938 91.335938 L 186.355469 91.921875 L 186.355469 91.917969 C 182.558594 71.800781 163.101562 58.523438 142.984375 62.320312 C 122.863281 66.121094 109.585938 85.578125 113.382812 105.695312 L 113.386719 105.695312 L 110.28125 106.28125 C 106.160156 84.449219 120.566406 63.339844 142.398438 59.21875 " fill-opacity="1" fill-rule="nonzero"/></g></g></g></g><g clip-path="url(#8a1c5edeaf)"><g clip-path="url(#936a821cfb)"><g clip-path="url(#9cdb073310)"><g clip-path="url(#0e16def9f7)"><path fill="#000000" d="M 144.160156 68.558594 C 160.867188 65.40625 176.964844 76.390625 180.121094 93.097656 L 155.289062 97.785156 C 154.722656 94.792969 151.839844 92.824219 148.847656 93.390625 C 145.855469 93.957031 143.890625 96.839844 144.453125 99.832031 L 119.621094 104.519531 C 116.46875 87.8125 127.453125 71.710938 144.160156 68.558594 " fill-opacity="1" fill-rule="nonzero"/></g></g></g></g><g clip-path="url(#002e60ef2e)"><g clip-path="url(#fe311c2d91)"><path fill="#906f3c" d="M 9.867188 124.65625 L 277.574219 74.65625 L 284.632812 112.457031 L 16.925781 162.457031 Z M 9.867188 124.65625 " fill-opacity="1" fill-rule="nonzero"/></g></g><g clip-path="url(#2b3ad020d7)"><g clip-path="url(#fc3ab61279)"><g clip-path="url(#76c00e7af6)"><path stroke-linecap="butt" transform="matrix(0.734018, -0.137093, 0.137093, 0.734018, 9.898814, 124.651381)" fill="none" stroke-linejoin="miter" d="M -0.00073271 0.00117421 L 364.533346 -0.000824273 L 364.53427 51.481838 L 0.000190423 51.483836 Z M -0.00073271 0.00117421 " stroke="#000000" stroke-width="8" stroke-opacity="1" stroke-miterlimit="4"/></g></g></g><path stroke-linecap="butt" transform="matrix(0.735053, -0.13143, 0.13143, 0.735053, 9.40958, 127.087875)" fill="none" stroke-linejoin="miter" d="M 22.393075 33.001168 L 22.39111 9.086718 L 26.690653 9.084929 L 26.690591 28.938934 L 36.915179 28.939032 L 36.912057 32.998556 Z M 40.700664 33.001066 L 40.702591 28.532131 L 44.848192 28.529387 L 44.846265 32.998322 Z M 51.329513 32.999048 L 51.327548 9.084598 L 58.267474 9.087267 C 60.988783 9.084938 63.269309 9.556476 65.115121 10.497653 C 66.960013 11.443979 68.351809 12.814144 69.293818 14.619366 C 70.235827 16.424588 70.708746 18.624217 70.706505 21.222482 C 70.709072 23.704693 70.22396 25.823364 69.262389 27.575188 C 68.294747 29.33124 66.885603 30.673552 65.040104 31.603046 C 63.188536 32.536768 60.921041 33.002866 58.232471 33.000421 Z M 55.62645 29.058938 L 57.811075 29.056304 C 59.128692 29.058072 60.322376 28.920768 61.381829 28.642549 C 62.441282 28.36433 63.34536 27.914845 64.089833 27.288023 C 64.834306 26.661201 65.40741 25.833681 65.808222 24.810614 C 66.209956 23.782397 66.407955 22.526439 66.409211 21.033361 C 66.407431 19.141172 66.134837 17.604442 65.589589 16.433472 C 65.040112 15.256432 64.16263 14.398054 62.958064 13.85319 C 61.749269 13.302255 60.161349 13.028957 58.200373 13.029067 L 55.627857 13.031429 Z M 75.49336 32.999163 L 75.495288 28.530228 L 79.639968 28.532634 L 79.638041 33.001569 Z M 86.120914 33.034113 L 86.119324 9.087845 L 93.857472 9.08444 C 94.972958 9.087267 96.029002 9.244206 97.026526 9.550109 C 98.028278 9.862083 98.908794 10.31712 99.667152 10.920371 C 100.43066 11.524543 101.031734 12.264413 101.470374 13.13998 C 101.909014 14.015547 102.129496 15.011534 102.131819 16.127941 C 102.13288 17.132523 101.932015 18.047857 101.530144 18.868794 C 101.128274 19.689731 100.576348 20.398809 99.870139 20.989959 C 99.168158 21.587179 98.364685 22.03871 97.457879 22.354852 L 104.109398 33.035411 L 99.188935 33.032462 L 93.295262 22.779692 L 90.42093 22.775918 L 90.420457 33.032324 Z M 90.451883 19.274051 L 94.24564 19.277481 C 95.382475 19.220354 96.27714 18.91267 96.917496 18.362888 C 97.558773 17.807956 97.884662 17.085033 97.883943 16.197425 C 97.88104 15.203143 97.523123 14.411094 96.805962 13.815209 C 96.093029 13.225395 95.120333 12.929245 93.887873 12.92676 L 90.454417 12.929297 Z M 107.899301 33.000952 L 107.901228 28.532017 L 112.045909 28.534423 L 112.044902 32.998208 Z M 126.85025 32.998972 L 126.853435 9.085443 L 131.152057 9.088803 L 131.149793 32.997182 Z M 137.308787 32.998387 L 137.311972 9.084858 L 141.573626 9.086923 L 151.627624 25.822959 L 151.627902 9.088454 L 155.757134 9.088098 L 155.759098 33.002547 L 151.460476 32.999187 L 141.439593 16.226558 L 141.438018 32.998031 Z M 168.752571 33.269221 C 167.689502 33.270453 166.658285 33.123267 165.6477 32.830971 C 164.637115 32.538675 163.710798 32.102019 162.868751 31.521004 C 162.031853 30.940909 161.323183 30.208373 160.74697 29.329464 C 160.171677 28.445405 159.786408 27.419953 159.597233 26.24888 L 163.86226 25.162127 C 163.960617 26.157535 164.246065 26.968511 164.717682 27.600205 C 165.18415 28.230979 165.774617 28.70324 166.485775 29.005768 C 167.196012 29.313445 167.971761 29.462781 168.82148 29.465915 C 169.677269 29.464821 170.397906 29.327961 170.978241 29.054416 C 171.557656 28.786021 172.000623 28.418829 172.306221 27.957989 C 172.61274 27.492 172.762383 26.982018 172.762142 26.418665 C 172.761731 25.796825 172.601102 25.268565 172.270878 24.826894 C 171.945803 24.386144 171.509075 24.005143 170.960692 23.683892 C 170.412309 23.362641 169.796607 23.061238 169.107514 22.783912 C 168.4175 22.511736 167.708729 22.225577 166.97329 21.939965 C 166.243 21.655273 165.531296 21.326076 164.842408 20.958445 C 164.153519 20.590813 163.535088 20.156066 162.987113 19.654204 C 162.444289 19.153262 162.005036 18.548611 161.678732 17.847244 C 161.3482 17.139805 161.184331 16.30274 161.188044 15.330897 C 161.185892 14.272977 161.386211 13.330974 161.776862 12.513346 C 162.172662 11.696638 162.716676 11.002087 163.412211 10.440914 C 164.108667 9.874592 164.901466 9.453037 165.798519 9.161723 C 166.694651 8.875559 167.645008 8.731946 168.64959 8.730885 C 170.127219 8.729379 171.507109 9.066452 172.778962 9.74026 C 174.056884 10.409841 175.104815 11.474065 175.928825 12.928706 L 172.355282 15.111605 C 171.937411 14.298208 171.390936 13.669072 170.715859 13.224196 C 170.035633 12.7784 169.299443 12.556424 168.496992 12.556427 C 167.933639 12.556668 167.425807 12.662493 166.967425 12.87813 C 166.509042 13.093767 166.147753 13.390535 165.882635 13.773585 C 165.617517 14.156634 165.484072 14.605742 165.484142 15.110607 C 165.484383 15.67396 165.647229 16.160103 165.97452 16.558735 C 166.301811 16.957368 166.738915 17.30655 167.285831 17.606283 C 167.832747 17.906015 168.452133 18.186819 169.143067 18.453846 C 169.828852 18.719952 170.539464 18.995811 171.274904 19.281423 C 172.004273 19.571265 172.715976 19.900462 173.403944 20.273243 C 174.091912 20.646024 174.714573 21.086841 175.259784 21.604152 C 175.805917 22.116314 176.243329 22.731264 176.571098 23.454151 C 176.898868 24.177038 177.059055 25.034702 177.061957 26.028985 C 177.062439 27.155691 176.844079 28.168867 176.407799 29.063365 C 175.975747 29.963934 175.377645 30.723212 174.616802 31.352422 C 173.851731 31.975561 172.969718 32.450248 171.964694 32.780713 C 170.96574 33.106949 169.889576 33.270581 168.752571 33.269221 Z M 185.912548 33.00015 L 185.909165 12.927645 L 178.411036 12.926139 L 178.412454 9.084194 L 197.686737 9.086884 L 197.690468 12.92975 L 190.208709 12.925856 L 190.206942 32.99744 Z M 198.246905 33.000173 L 207.826169 9.087699 L 211.041124 9.088608 L 220.566751 33.000055 L 215.932654 33.000482 L 214.087985 27.8028 L 204.793122 27.804199 L 202.934339 32.998655 Z M 206.252083 24.132526 L 212.629577 24.130286 L 209.450432 15.399163 Z M 223.850493 33.002635 L 223.848528 9.088185 L 228.148071 9.086396 L 228.148009 28.940401 L 238.367447 28.939578 L 238.369474 33.000023 Z M 238.959496 32.999237 L 248.53876 9.086763 L 251.753715 9.087672 L 261.284492 33.00004 L 256.645245 32.999546 L 254.800577 27.801864 L 245.510863 27.804184 L 243.646931 32.997719 Z M 246.964675 24.13159 L 253.347318 24.130271 L 250.163023 15.398227 Z M 284.907982 26.452045 C 284.047324 28.471681 282.827931 30.060492 281.248883 31.223626 C 279.669835 32.38676 277.847935 33.065389 275.786492 33.270733 L 274.681719 34.694039 C 275.724156 34.837917 276.5188 35.208515 277.068411 35.790384 C 277.622251 36.378324 277.89815 37.123822 277.901257 38.027799 C 277.901464 38.739944 277.728801 39.378666 277.391726 39.956105 C 277.054651 40.533544 276.590881 40.987359 276.014946 41.325461 C 275.432939 41.667793 274.770415 41.8363 274.021301 41.835211 C 273.314305 41.836339 272.649289 41.632404 272.036553 41.225246 C 271.418667 40.817168 270.969831 40.295832 270.691887 39.650939 L 272.990209 38.6855 C 273.079731 38.898134 273.226274 39.089078 273.4326 39.242883 C 273.632855 39.400917 273.868441 39.48024 274.122988 39.483241 C 274.5221 39.480204 274.846933 39.357601 275.09841 39.110283 C 275.349887 38.862965 275.480911 38.546281 275.480262 38.163539 C 275.479646 37.632004 275.219129 37.186854 274.69264 36.832318 C 274.166152 36.477782 273.480163 36.301982 272.635594 36.299768 L 271.450401 36.300421 L 273.362393 33.304947 C 271.582608 33.183342 270.030768 32.767696 268.715332 32.070151 C 267.405966 31.368378 266.309813 30.454958 265.443243 29.327505 C 264.576673 28.200052 263.927716 26.925511 263.505751 25.510872 C 263.083785 24.096233 262.872611 22.602372 262.87131 21.034437 C 262.871237 19.72712 263.022889 18.462875 263.320198 17.24593 C 263.618427 16.023836 264.069473 14.898152 264.673337 13.868877 C 265.278122 12.834453 266.035349 11.928256 266.950168 11.151208 C 267.864987 10.37416 268.94548 9.77022 270.191649 9.339388 C 271.436896 8.913706 272.846522 8.6981 274.414457 8.696798 C 275.992691 8.697338 277.455179 8.958836 278.795852 9.485523 C 280.137444 10.007061 281.327244 10.783112 282.356794 11.801536 C 283.390572 12.82603 284.228973 14.081302 284.871997 15.567352 L 280.861587 17.161971 C 280.566078 16.110055 280.105543 15.267772 279.480904 14.629974 C 278.856265 13.992176 278.110014 13.52926 277.237923 13.235156 C 276.370981 12.941973 275.41977 12.79315 274.378221 12.792915 C 273.113942 12.790055 272.029491 13.000033 271.114568 13.421008 C 270.200566 13.836833 269.44801 14.419696 268.863891 15.160218 C 268.273702 15.904969 267.842946 16.768569 267.557095 17.743107 C 267.276394 18.718566 267.137666 19.761924 267.136681 20.86711 C 267.137333 22.052303 267.275763 23.150532 267.560427 24.173938 C 267.839942 25.196423 268.27582 26.087439 268.868061 26.846987 C 269.464531 27.612604 270.219581 28.204635 271.138361 28.624001 C 272.056219 29.048515 273.160622 29.26193 274.447341 29.258174 C 275.993757 29.258339 277.297287 28.922791 278.364923 28.242153 C 279.431639 27.566664 280.283638 26.427644 280.926071 24.826012 Z M 300.794505 7.328849 C 300.263891 7.324315 299.810725 7.243287 299.43078 7.079695 C 299.055983 6.917024 298.730671 6.715372 298.460913 6.470511 C 298.190234 6.2308 297.941995 5.984472 297.724653 5.743669 C 297.502162 5.501946 297.288675 5.299032 297.079041 5.134007 C 296.869407 4.968981 296.64412 4.891499 296.394722 4.88942 C 296.043799 4.890444 295.77394 5.091962 295.580917 5.487902 C 295.392122 5.889913 295.295066 6.46244 295.294899 7.206404 L 292.924512 7.207709 C 292.926519 5.650994 293.251962 4.455023 293.900843 3.619796 C 294.549724 2.784569 295.426758 2.367448 296.531945 2.368433 C 297.015291 2.369829 297.437559 2.445333 297.791757 2.604321 C 298.145955 2.763309 298.461889 2.95797 298.737717 3.198602 C 299.014467 3.434085 299.268776 3.676183 299.502487 3.914599 C 299.730128 4.157243 299.948765 4.361078 300.16024 4.515804 C 300.370795 4.67568 300.590932 4.752241 300.830031 4.752479 C 301.122467 4.751625 301.368965 4.561873 301.572287 4.167774 C 301.774689 3.778825 301.875974 3.212368 301.876142 2.468404 L 304.330763 2.471532 C 304.328757 4.028247 304.013613 5.22606 303.38533 6.06497 C 302.750977 6.908109 301.889392 7.327992 300.794505 7.328849 Z M 298.646501 33.340628 C 297.063117 33.339167 295.650829 33.123844 294.404487 32.693737 C 293.157224 32.26878 292.079762 31.666929 291.166028 30.892411 C 290.252295 30.117894 289.494004 29.217057 288.887847 28.178681 C 288.28684 27.141226 287.834831 26.013499 287.541196 24.802491 C 287.248483 23.586333 287.100709 22.33232 287.103944 21.036223 C 287.104791 19.723756 287.249453 18.468889 287.54492 17.262244 C 287.835237 16.054678 288.286283 14.928994 288.891068 13.894569 C 289.491624 12.854074 290.248851 11.947878 291.162749 11.175979 C 292.076647 10.404081 293.157141 9.800141 294.407538 9.37538 C 295.653706 8.944548 297.068482 8.729862 298.646716 8.730402 C 300.22495 8.730941 301.637238 8.946265 302.88358 9.376371 C 304.130843 9.801328 305.213455 10.404101 306.127189 11.178618 C 307.041843 11.947986 307.799213 12.853972 308.40022 13.891427 C 309.006376 14.929803 309.454157 16.05146 309.747792 17.262468 C 310.042346 18.468327 310.1892 19.72749 310.189273 21.034807 C 310.186038 22.330904 310.041377 23.585771 309.750139 24.798486 C 309.45283 26.015431 309.007854 27.136886 308.402149 28.17646 C 307.796443 29.216034 307.039216 30.122231 306.125318 30.894129 C 305.21142 31.666027 304.131847 32.264818 302.885679 32.69565 C 301.639511 33.126482 300.225655 33.336018 298.646501 33.340628 Z M 298.647544 29.530501 C 299.933342 29.531895 301.021476 29.301318 301.911025 28.843921 C 302.805725 28.387444 303.522608 27.766318 304.067747 26.976312 C 304.618036 26.187227 305.01919 25.281134 305.27121 24.258033 C 305.523229 23.234932 305.651113 22.163064 305.650631 21.036358 C 305.65107 19.904503 305.523486 18.834784 305.269719 17.816903 C 305.015032 16.804171 304.617963 15.904152 304.069135 15.109853 C 303.524536 14.321625 302.80168 13.69815 301.910865 13.241271 C 301.02005 12.784392 299.928709 12.55737 298.642911 12.555977 C 297.357113 12.554584 296.268979 12.78516 295.379429 13.242557 C 294.489879 13.699955 293.767846 14.320161 293.222707 15.110166 C 292.672419 15.899251 292.271265 16.805344 292.021086 17.818146 C 291.764838 18.835176 291.636954 19.907044 291.637436 21.03375 C 291.637918 22.160456 291.764581 23.235325 292.017427 24.258355 C 292.275423 25.282307 292.67157 26.187476 293.221319 26.976625 C 293.765918 27.764853 294.488775 28.388328 295.379589 28.845207 C 296.270404 29.302086 297.361746 29.529108 298.647544 29.530501 Z M 314.650545 32.997727 L 314.652809 9.089348 L 330.559115 9.085026 L 330.5608 13.028496 L 318.948889 13.030108 L 318.952492 19.073048 L 329.767102 19.07236 L 329.763638 23.01491 L 318.949028 23.015598 L 318.953211 28.936414 L 330.559052 28.939031 L 330.561079 32.999476 Z M 342.560269 33.269052 C 341.4972 33.270284 340.460834 33.122177 339.450249 32.829881 C 338.439663 32.537585 337.518497 32.10185 336.676449 31.520835 C 335.834402 30.939819 335.125732 30.207282 334.554668 29.329294 C 333.979376 28.445236 333.594107 27.419784 333.399781 26.24779 L 337.663887 25.166187 C 337.768316 26.157366 338.053763 26.968342 338.520231 27.599115 C 338.990928 28.235959 339.577166 28.702149 340.288324 29.004677 C 340.998561 29.312355 341.779459 29.462611 342.624028 29.464825 C 343.484967 29.464651 344.200454 29.326871 344.785019 29.059397 C 345.365354 28.785852 345.808321 28.418659 346.113919 27.95782 C 346.414368 27.49606 346.570082 26.981849 346.569841 26.418496 C 346.569429 25.796656 346.403651 25.267475 346.078576 24.826725 C 345.748352 24.385054 345.311624 24.004053 344.76839 23.683723 C 344.220008 23.362471 343.599155 23.060147 342.914291 22.788892 C 342.225198 22.511566 341.515507 22.230558 340.780988 21.939795 C 340.045549 21.654183 339.333845 21.324986 338.650106 20.958275 C 337.961217 20.590644 337.342786 20.155897 336.794812 19.654034 C 336.246838 19.152172 335.812734 18.548442 335.481281 17.846153 C 335.155899 17.139636 334.992029 16.30257 334.990593 15.329807 C 334.99359 14.272808 335.18876 13.329884 335.58456 12.513176 C 335.98036 11.696468 336.523453 11.007067 337.21991 10.440745 C 337.910295 9.878651 338.709164 9.452868 339.606217 9.161554 C 340.502349 8.87539 341.452706 8.731777 342.457288 8.730716 C 343.934917 8.72921 345.309658 9.065361 346.58666 9.740091 C 347.859433 10.40875 348.907364 11.472975 349.731374 12.927616 L 346.16298 15.111436 C 345.745109 14.298039 345.198635 13.668902 344.518408 13.223106 C 343.843331 12.778231 343.107142 12.556255 342.30469 12.556258 C 341.741337 12.556499 341.228355 12.661402 340.769973 12.87704 C 340.316741 13.093597 339.955451 13.390366 339.690333 13.773416 C 339.425215 14.156465 339.291771 14.605572 339.291841 15.110438 C 339.292082 15.673791 339.454927 16.159933 339.782218 16.558566 C 340.109509 16.957199 340.546613 17.306381 341.093529 17.606113 C 341.640445 17.905845 342.259831 18.18665 342.945616 18.452756 C 343.636551 18.719782 344.347163 18.995641 345.077452 19.280333 C 345.811971 19.571096 346.523675 19.900292 347.211643 20.273073 C 347.899611 20.645854 348.517121 21.085751 349.062333 21.603062 C 349.613615 22.116145 350.051027 22.731094 350.378797 23.453982 C 350.701417 24.175948 350.866753 25.034533 350.864506 26.027895 C 350.864988 27.154601 350.651777 28.168698 350.215497 29.063196 C 349.783445 29.963764 349.185344 30.723043 348.419351 31.351332 C 347.659429 31.975391 346.776495 32.455228 345.772392 32.780544 C 344.768289 33.105859 343.697274 33.270412 342.560269 33.269052 Z M 342.560269 33.269052 " stroke="#000000" stroke-width="2.600018" stroke-opacity="1" stroke-miterlimit="4"/><g fill="#f6f1ee" fill-opacity="1"><g transform="translate(27.942493, 148.806367)"><g><path d="M 2.265625 -0.40625 L -0.875 -17.984375 L 2.28125 -18.546875 L 4.890625 -3.953125 L 12.40625 -5.296875 L 12.9375 -2.3125 Z M 2.265625 -0.40625 "/></g></g></g><g fill="#f6f1ee" fill-opacity="1"><g transform="translate(41.164683, 146.442185)"><g><path d="M 2.5 -0.453125 L 1.921875 -3.734375 L 4.96875 -4.28125 L 5.546875 -1 Z M 2.5 -0.453125 "/></g></g></g><g fill="#f6f1ee" fill-opacity="1"><g transform="translate(49.212433, 145.003214)"><g><path d="M 2.265625 -0.40625 L -0.875 -17.984375 L 4.234375 -18.890625 C 6.222656 -19.253906 7.957031 -19.207031 9.4375 -18.75 C 10.914062 -18.300781 12.117188 -17.472656 13.046875 -16.265625 C 13.972656 -15.066406 14.609375 -13.515625 14.953125 -11.609375 C 15.273438 -9.785156 15.195312 -8.164062 14.71875 -6.75 C 14.25 -5.332031 13.394531 -4.160156 12.15625 -3.234375 C 10.925781 -2.304688 9.320312 -1.664062 7.34375 -1.3125 Z M 4.90625 -3.859375 L 6.515625 -4.140625 C 7.472656 -4.316406 8.320312 -4.578125 9.0625 -4.921875 C 9.8125 -5.265625 10.414062 -5.71875 10.875 -6.28125 C 11.34375 -6.84375 11.65625 -7.523438 11.8125 -8.328125 C 11.976562 -9.140625 11.960938 -10.09375 11.765625 -11.1875 C 11.515625 -12.582031 11.113281 -13.671875 10.5625 -14.453125 C 10.007812 -15.242188 9.25 -15.757812 8.28125 -16 C 7.320312 -16.238281 6.125 -16.234375 4.6875 -15.984375 L 2.796875 -15.640625 Z M 4.90625 -3.859375 "/></g></g></g><g fill="#f6f1ee" fill-opacity="1"><g transform="translate(66.738365, 141.869505)"><g><path d="M 2.5 -0.453125 L 1.921875 -3.734375 L 4.96875 -4.28125 L 5.546875 -1 Z M 2.5 -0.453125 "/></g></g></g><g fill="#f6f1ee" fill-opacity="1"><g transform="translate(74.786115, 140.430535)"><g><path d="M 2.265625 -0.375 L -0.875 -17.984375 L 4.8125 -19 C 5.632812 -19.144531 6.429688 -19.164062 7.203125 -19.0625 C 7.972656 -18.96875 8.675781 -18.75 9.3125 -18.40625 C 9.957031 -18.0625 10.5 -17.597656 10.9375 -17.015625 C 11.375 -16.429688 11.664062 -15.726562 11.8125 -14.90625 C 11.945312 -14.175781 11.921875 -13.476562 11.734375 -12.8125 C 11.554688 -12.144531 11.242188 -11.550781 10.796875 -11.03125 C 10.359375 -10.507812 9.820312 -10.070312 9.1875 -9.71875 L 15.484375 -2.734375 L 11.859375 -2.09375 L 6.1875 -8.84375 L 4.078125 -8.46875 L 5.421875 -0.9375 Z M 3.640625 -11.0625 L 6.4375 -11.5625 C 7.257812 -11.757812 7.867188 -12.097656 8.265625 -12.578125 C 8.671875 -13.066406 8.816406 -13.640625 8.703125 -14.296875 C 8.566406 -15.023438 8.195312 -15.5625 7.59375 -15.90625 C 6.988281 -16.25 6.234375 -16.335938 5.328125 -16.171875 L 2.796875 -15.71875 Z M 3.640625 -11.0625 "/></g></g></g><g fill="#f6f1ee" fill-opacity="1"><g transform="translate(90.55821, 137.610419)"><g><path d="M 2.5 -0.453125 L 1.921875 -3.734375 L 4.96875 -4.28125 L 5.546875 -1 Z M 2.5 -0.453125 "/></g></g></g><g fill="#f6f1ee" fill-opacity="1"><g transform="translate(98.605959, 136.171449)"><g/></g></g><g fill="#f6f1ee" fill-opacity="1"><g transform="translate(104.725731, 135.077208)"><g><path d="M 2.265625 -0.40625 L -0.875 -17.984375 L 2.28125 -18.546875 L 5.421875 -0.96875 Z M 2.265625 -0.40625 "/></g></g></g><g fill="#f6f1ee" fill-opacity="1"><g transform="translate(112.412762, 133.702735)"><g><path d="M 2.265625 -0.40625 L -0.875 -17.984375 L 2.265625 -18.546875 L 11.84375 -7.5625 L 9.640625 -19.859375 L 12.6875 -20.40625 L 15.828125 -2.828125 L 12.65625 -2.265625 L 3.09375 -13.265625 L 5.296875 -0.953125 Z M 2.265625 -0.40625 "/></g></g></g><g fill="#f6f1ee" fill-opacity="1"><g transform="translate(130.498431, 130.468944)"><g><path d="M 7.328125 -1.09375 C 6.546875 -0.957031 5.765625 -0.929688 4.984375 -1.015625 C 4.203125 -1.109375 3.460938 -1.304688 2.765625 -1.609375 C 2.078125 -1.921875 1.460938 -2.363281 0.921875 -2.9375 C 0.378906 -3.519531 -0.0390625 -4.226562 -0.34375 -5.0625 L 2.65625 -6.40625 C 2.863281 -5.6875 3.179688 -5.128906 3.609375 -4.734375 C 4.046875 -4.335938 4.539062 -4.070312 5.09375 -3.9375 C 5.65625 -3.800781 6.25 -3.789062 6.875 -3.90625 C 7.507812 -4.019531 8.019531 -4.210938 8.40625 -4.484375 C 8.789062 -4.765625 9.066406 -5.09375 9.234375 -5.46875 C 9.398438 -5.851562 9.445312 -6.253906 9.375 -6.671875 C 9.289062 -7.117188 9.097656 -7.484375 8.796875 -7.765625 C 8.503906 -8.046875 8.132812 -8.269531 7.6875 -8.4375 C 7.25 -8.601562 6.753906 -8.742188 6.203125 -8.859375 C 5.660156 -8.972656 5.097656 -9.082031 4.515625 -9.1875 C 3.941406 -9.300781 3.378906 -9.453125 2.828125 -9.640625 C 2.273438 -9.828125 1.765625 -10.066406 1.296875 -10.359375 C 0.828125 -10.648438 0.425781 -11.035156 0.09375 -11.515625 C -0.238281 -11.992188 -0.472656 -12.585938 -0.609375 -13.296875 C -0.742188 -14.078125 -0.71875 -14.789062 -0.53125 -15.4375 C -0.351562 -16.09375 -0.046875 -16.671875 0.390625 -17.171875 C 0.828125 -17.679688 1.359375 -18.101562 1.984375 -18.4375 C 2.609375 -18.769531 3.289062 -19.003906 4.03125 -19.140625 C 5.113281 -19.328125 6.164062 -19.253906 7.1875 -18.921875 C 8.21875 -18.585938 9.128906 -17.945312 9.921875 -17 L 7.59375 -14.9375 C 7.164062 -15.46875 6.675781 -15.851562 6.125 -16.09375 C 5.570312 -16.332031 5.003906 -16.398438 4.421875 -16.296875 C 3.992188 -16.222656 3.625 -16.078125 3.3125 -15.859375 C 3.007812 -15.640625 2.785156 -15.367188 2.640625 -15.046875 C 2.503906 -14.734375 2.472656 -14.394531 2.546875 -14.03125 C 2.617188 -13.601562 2.800781 -13.265625 3.09375 -13.015625 C 3.382812 -12.765625 3.75 -12.566406 4.1875 -12.421875 C 4.625 -12.273438 5.113281 -12.144531 5.65625 -12.03125 C 6.207031 -11.925781 6.769531 -11.816406 7.34375 -11.703125 C 7.914062 -11.597656 8.476562 -11.453125 9.03125 -11.265625 C 9.59375 -11.078125 10.109375 -10.832031 10.578125 -10.53125 C 11.046875 -10.226562 11.445312 -9.832031 11.78125 -9.34375 C 12.113281 -8.851562 12.34375 -8.242188 12.46875 -7.515625 C 12.625 -6.679688 12.597656 -5.90625 12.390625 -5.1875 C 12.191406 -4.476562 11.851562 -3.84375 11.375 -3.28125 C 10.894531 -2.71875 10.304688 -2.25 9.609375 -1.875 C 8.921875 -1.507812 8.160156 -1.25 7.328125 -1.09375 Z M 7.328125 -1.09375 "/></g></g></g><g fill="#f6f1ee" fill-opacity="1"><g transform="translate(144.641075, 127.940181)"><g><path d="M 5.75 -1.03125 L 3.109375 -15.78125 L -2.390625 -14.796875 L -2.890625 -17.625 L 11.265625 -20.15625 L 11.765625 -17.328125 L 6.28125 -16.34375 L 8.921875 -1.59375 Z M 5.75 -1.03125 "/></g></g></g><g fill="#f6f1ee" fill-opacity="1"><g transform="translate(159.318578, 125.315783)"><g><path d="M 0.15625 -0.03125 L 4.046875 -18.859375 L 6.40625 -19.28125 L 16.546875 -2.953125 L 13.15625 -2.34375 L 11.109375 -5.921875 L 4.28125 -4.703125 L 3.59375 -0.640625 Z M 4.859375 -7.59375 L 9.546875 -8.4375 L 6.0625 -14.4375 Z M 4.859375 -7.59375 "/></g></g></g><g fill="#f6f1ee" fill-opacity="1"><g transform="translate(176.023565, 122.328863)"><g><path d="M 2.265625 -0.40625 L -0.875 -17.984375 L 2.28125 -18.546875 L 4.890625 -3.953125 L 12.40625 -5.296875 L 12.9375 -2.3125 Z M 2.265625 -0.40625 "/></g></g></g><g fill="#f6f1ee" fill-opacity="1"><g transform="translate(189.245756, 119.964681)"><g><path d="M 0.15625 -0.03125 L 4.046875 -18.859375 L 6.40625 -19.28125 L 16.546875 -2.953125 L 13.15625 -2.34375 L 11.109375 -5.921875 L 4.28125 -4.703125 L 3.59375 -0.640625 Z M 4.859375 -7.59375 L 9.546875 -8.4375 L 6.0625 -14.4375 Z M 4.859375 -7.59375 "/></g></g></g><g fill="#f6f1ee" fill-opacity="1"><g transform="translate(205.950744, 116.97776)"><g><path d="M 16.359375 -7.890625 C 15.984375 -6.285156 15.289062 -4.953125 14.28125 -3.890625 C 13.28125 -2.835938 12.03125 -2.097656 10.53125 -1.671875 L 9.921875 -0.484375 C 10.703125 -0.515625 11.332031 -0.351562 11.8125 0 C 12.300781 0.351562 12.601562 0.863281 12.71875 1.53125 C 12.8125 2.050781 12.773438 2.546875 12.609375 3.015625 C 12.441406 3.484375 12.164062 3.878906 11.78125 4.203125 C 11.394531 4.523438 10.925781 4.738281 10.375 4.84375 C 9.84375 4.9375 9.328125 4.875 8.828125 4.65625 C 8.328125 4.4375 7.929688 4.113281 7.640625 3.6875 L 9.203125 2.671875 C 9.296875 2.816406 9.425781 2.929688 9.59375 3.015625 C 9.769531 3.109375 9.957031 3.140625 10.15625 3.109375 C 10.4375 3.054688 10.65625 2.921875 10.8125 2.703125 C 10.96875 2.484375 11.019531 2.234375 10.96875 1.953125 C 10.90625 1.566406 10.65625 1.273438 10.21875 1.078125 C 9.789062 0.890625 9.265625 0.851562 8.640625 0.96875 L 7.765625 1.125 L 8.78125 -1.328125 C 7.445312 -1.179688 6.25 -1.28125 5.1875 -1.625 C 4.125 -1.976562 3.203125 -2.507812 2.421875 -3.21875 C 1.640625 -3.925781 1 -4.773438 0.5 -5.765625 C 0 -6.753906 -0.351562 -7.828125 -0.5625 -8.984375 C -0.726562 -9.941406 -0.78125 -10.882812 -0.71875 -11.8125 C -0.664062 -12.75 -0.484375 -13.632812 -0.171875 -14.46875 C 0.140625 -15.3125 0.578125 -16.082031 1.140625 -16.78125 C 1.710938 -17.476562 2.425781 -18.0625 3.28125 -18.53125 C 4.144531 -19.007812 5.15625 -19.351562 6.3125 -19.5625 C 7.476562 -19.769531 8.585938 -19.765625 9.640625 -19.546875 C 10.691406 -19.335938 11.660156 -18.925781 12.546875 -18.3125 C 13.441406 -17.707031 14.222656 -16.898438 14.890625 -15.890625 L 12.171875 -14.1875 C 11.816406 -14.914062 11.363281 -15.472656 10.8125 -15.859375 C 10.269531 -16.242188 9.660156 -16.488281 8.984375 -16.59375 C 8.304688 -16.695312 7.582031 -16.675781 6.8125 -16.53125 C 5.894531 -16.375 5.128906 -16.082031 4.515625 -15.65625 C 3.898438 -15.238281 3.421875 -14.71875 3.078125 -14.09375 C 2.742188 -13.46875 2.535156 -12.773438 2.453125 -12.015625 C 2.378906 -11.265625 2.414062 -10.484375 2.5625 -9.671875 C 2.71875 -8.796875 2.96875 -8.003906 3.3125 -7.296875 C 3.65625 -6.585938 4.09375 -5.988281 4.625 -5.5 C 5.15625 -5.007812 5.785156 -4.671875 6.515625 -4.484375 C 7.242188 -4.296875 8.078125 -4.285156 9.015625 -4.453125 C 10.160156 -4.648438 11.078125 -5.066406 11.765625 -5.703125 C 12.460938 -6.347656 12.941406 -7.304688 13.203125 -8.578125 Z M 16.359375 -7.890625 "/></g></g></g><g fill="#f6f1ee" fill-opacity="1"><g transform="translate(223.762775, 113.792896)"><g><path d="M 7.703125 -20.859375 C 7.304688 -20.785156 6.957031 -20.78125 6.65625 -20.84375 C 6.363281 -20.914062 6.101562 -21.023438 5.875 -21.171875 C 5.644531 -21.316406 5.429688 -21.460938 5.234375 -21.609375 C 5.046875 -21.753906 4.863281 -21.875 4.6875 -21.96875 C 4.519531 -22.0625 4.34375 -22.09375 4.15625 -22.0625 C 3.894531 -22.007812 3.722656 -21.828125 3.640625 -21.515625 C 3.554688 -21.203125 3.5625 -20.769531 3.65625 -20.21875 L 1.90625 -19.90625 C 1.695312 -21.050781 1.773438 -21.972656 2.140625 -22.671875 C 2.503906 -23.367188 3.097656 -23.789062 3.921875 -23.9375 C 4.265625 -24 4.578125 -23.992188 4.859375 -23.921875 C 5.148438 -23.847656 5.410156 -23.742188 5.640625 -23.609375 C 5.878906 -23.472656 6.097656 -23.332031 6.296875 -23.1875 C 6.503906 -23.039062 6.691406 -22.921875 6.859375 -22.828125 C 7.035156 -22.742188 7.210938 -22.71875 7.390625 -22.75 C 7.597656 -22.789062 7.753906 -22.960938 7.859375 -23.265625 C 7.960938 -23.578125 7.960938 -24.007812 7.859375 -24.5625 L 9.65625 -24.875 C 9.863281 -23.726562 9.789062 -22.804688 9.4375 -22.109375 C 9.09375 -21.421875 8.515625 -21.003906 7.703125 -20.859375 Z M 9.546875 -1.453125 C 8.390625 -1.242188 7.320312 -1.210938 6.34375 -1.359375 C 5.375 -1.503906 4.503906 -1.800781 3.734375 -2.25 C 2.960938 -2.707031 2.28125 -3.273438 1.6875 -3.953125 C 1.101562 -4.640625 0.625 -5.410156 0.25 -6.265625 C -0.113281 -7.128906 -0.382812 -8.035156 -0.5625 -8.984375 C -0.726562 -9.941406 -0.785156 -10.882812 -0.734375 -11.8125 C -0.679688 -12.738281 -0.5 -13.617188 -0.1875 -14.453125 C 0.125 -15.296875 0.566406 -16.0625 1.140625 -16.75 C 1.710938 -17.4375 2.425781 -18.019531 3.28125 -18.5 C 4.144531 -18.988281 5.15625 -19.335938 6.3125 -19.546875 C 7.476562 -19.753906 8.546875 -19.78125 9.515625 -19.625 C 10.492188 -19.46875 11.367188 -19.164062 12.140625 -18.71875 C 12.910156 -18.269531 13.582031 -17.703125 14.15625 -17.015625 C 14.726562 -16.335938 15.203125 -15.570312 15.578125 -14.71875 C 15.960938 -13.875 16.238281 -12.972656 16.40625 -12.015625 C 16.582031 -11.066406 16.640625 -10.125 16.578125 -9.1875 C 16.515625 -8.25 16.332031 -7.359375 16.03125 -6.515625 C 15.738281 -5.679688 15.304688 -4.914062 14.734375 -4.21875 C 14.160156 -3.53125 13.441406 -2.945312 12.578125 -2.46875 C 11.722656 -2 10.710938 -1.660156 9.546875 -1.453125 Z M 9.046875 -4.25 C 9.992188 -4.414062 10.765625 -4.722656 11.359375 -5.171875 C 11.953125 -5.617188 12.394531 -6.171875 12.6875 -6.828125 C 12.988281 -7.484375 13.164062 -8.203125 13.21875 -8.984375 C 13.28125 -9.773438 13.234375 -10.585938 13.078125 -11.421875 C 12.929688 -12.253906 12.695312 -13.023438 12.375 -13.734375 C 12.0625 -14.441406 11.648438 -15.046875 11.140625 -15.546875 C 10.640625 -16.054688 10.03125 -16.421875 9.3125 -16.640625 C 8.59375 -16.867188 7.757812 -16.898438 6.8125 -16.734375 C 5.875 -16.566406 5.109375 -16.253906 4.515625 -15.796875 C 3.921875 -15.335938 3.472656 -14.78125 3.171875 -14.125 C 2.867188 -13.476562 2.691406 -12.765625 2.640625 -11.984375 C 2.585938 -11.210938 2.632812 -10.410156 2.78125 -9.578125 C 2.9375 -8.742188 3.171875 -7.96875 3.484375 -7.25 C 3.796875 -6.53125 4.207031 -5.914062 4.71875 -5.40625 C 5.226562 -4.894531 5.84375 -4.53125 6.5625 -4.3125 C 7.28125 -4.101562 8.109375 -4.082031 9.046875 -4.25 Z M 9.046875 -4.25 "/></g></g></g><g fill="#f6f1ee" fill-opacity="1"><g transform="translate(242.768897, 110.394523)"><g><path d="M 2.265625 -0.40625 L -0.875 -17.984375 L 10.8125 -20.078125 L 11.328125 -17.171875 L 2.796875 -15.640625 L 3.59375 -11.203125 L 11.53125 -12.625 L 12.046875 -9.734375 L 4.109375 -8.3125 L 4.890625 -3.953125 L 13.421875 -5.484375 L 13.953125 -2.5 Z M 2.265625 -0.40625 "/></g></g></g><g fill="#f6f1ee" fill-opacity="1"><g transform="translate(258.254894, 107.625563)"><g><path d="M 7.328125 -1.09375 C 6.546875 -0.957031 5.765625 -0.929688 4.984375 -1.015625 C 4.203125 -1.109375 3.460938 -1.304688 2.765625 -1.609375 C 2.078125 -1.921875 1.460938 -2.363281 0.921875 -2.9375 C 0.378906 -3.519531 -0.0390625 -4.226562 -0.34375 -5.0625 L 2.65625 -6.40625 C 2.863281 -5.6875 3.179688 -5.128906 3.609375 -4.734375 C 4.046875 -4.335938 4.539062 -4.070312 5.09375 -3.9375 C 5.65625 -3.800781 6.25 -3.789062 6.875 -3.90625 C 7.507812 -4.019531 8.019531 -4.210938 8.40625 -4.484375 C 8.789062 -4.765625 9.066406 -5.09375 9.234375 -5.46875 C 9.398438 -5.851562 9.445312 -6.253906 9.375 -6.671875 C 9.289062 -7.117188 9.097656 -7.484375 8.796875 -7.765625 C 8.503906 -8.046875 8.132812 -8.269531 7.6875 -8.4375 C 7.25 -8.601562 6.753906 -8.742188 6.203125 -8.859375 C 5.660156 -8.972656 5.097656 -9.082031 4.515625 -9.1875 C 3.941406 -9.300781 3.378906 -9.453125 2.828125 -9.640625 C 2.273438 -9.828125 1.765625 -10.066406 1.296875 -10.359375 C 0.828125 -10.648438 0.425781 -11.035156 0.09375 -11.515625 C -0.238281 -11.992188 -0.472656 -12.585938 -0.609375 -13.296875 C -0.742188 -14.078125 -0.71875 -14.789062 -0.53125 -15.4375 C -0.351562 -16.09375 -0.046875 -16.671875 0.390625 -17.171875 C 0.828125 -17.679688 1.359375 -18.101562 1.984375 -18.4375 C 2.609375 -18.769531 3.289062 -19.003906 4.03125 -19.140625 C 5.113281 -19.328125 6.164062 -19.253906 7.1875 -18.921875 C 8.21875 -18.585938 9.128906 -17.945312 9.921875 -17 L 7.59375 -14.9375 C 7.164062 -15.46875 6.675781 -15.851562 6.125 -16.09375 C 5.570312 -16.332031 5.003906 -16.398438 4.421875 -16.296875 C 3.992188 -16.222656 3.625 -16.078125 3.3125 -15.859375 C 3.007812 -15.640625 2.785156 -15.367188 2.640625 -15.046875 C 2.503906 -14.734375 2.472656 -14.394531 2.546875 -14.03125 C 2.617188 -13.601562 2.800781 -13.265625 3.09375 -13.015625 C 3.382812 -12.765625 3.75 -12.566406 4.1875 -12.421875 C 4.625 -12.273438 5.113281 -12.144531 5.65625 -12.03125 C 6.207031 -11.925781 6.769531 -11.816406 7.34375 -11.703125 C 7.914062 -11.597656 8.476562 -11.453125 9.03125 -11.265625 C 9.59375 -11.078125 10.109375 -10.832031 10.578125 -10.53125 C 11.046875 -10.226562 11.445312 -9.832031 11.78125 -9.34375 C 12.113281 -8.851562 12.34375 -8.242188 12.46875 -7.515625 C 12.625 -6.679688 12.597656 -5.90625 12.390625 -5.1875 C 12.191406 -4.476562 11.851562 -3.84375 11.375 -3.28125 C 10.894531 -2.71875 10.304688 -2.25 9.609375 -1.875 C 8.921875 -1.507812 8.160156 -1.25 7.328125 -1.09375 Z M 7.328125 -1.09375 "/></g></g></g></svg>